<svg width="406" height="271" viewBox="0 0 406 271" fill="none" xmlns="http://www.w3.org/2000/svg">
<path d="M539 159.592L494.976 107L406.607 107.811L353 160.243L354.083 160.942H353.696V270H538.882V160.942L539 159.592Z" fill="#F2F2F2"/>
<rect x="390" y="212" width="20" height="18" fill="white"/>
<rect x="390" y="181" width="20" height="17" fill="white"/>
<rect x="366" y="109" width="18" height="62" fill="#F2F2F2"/>
<path d="M396 159.592L351.976 107L263.607 107.811L210 160.243L211.083 160.942H210.696V270H395.882V160.942L396 159.592Z" fill="#F2F2F2"/>
<path d="M352.077 107L297 171.794V270H396V159.468L352.077 107Z" fill="#E6E6E6"/>
<rect x="337" y="216" width="20" height="18" fill="#3A3335"/>
<rect x="337" y="185" width="20" height="17" fill="#3A3335"/>
<rect x="337" y="216" width="20" height="18" fill="white"/>
<rect x="337" y="185" width="20" height="17" fill="white"/>
<rect x="247" y="212" width="20" height="18" fill="white"/>
<rect x="247" y="181" width="20" height="17" fill="white"/>
<rect x="214" y="55" width="24" height="84" fill="#F2F2F2"/>
<path d="M254 123.015L195.064 53L76.7633 54.0796L5 123.881L6.44968 124.812H5.93198V270H253.841V124.812L254 123.015Z" fill="#F2F2F2"/>
<path d="M194.993 53L121 139.259V270H254V122.85L194.993 53Z" fill="#E6E6E6"/>
<rect x="175" y="198" width="27" height="24" fill="#3A3335"/>
<rect x="175" y="157" width="27" height="23" fill="#3A3335"/>
<rect x="175" y="198" width="27" height="24" fill="white"/>
<rect x="175" y="157" width="27" height="23" fill="white"/>
<rect x="54" y="191" width="27" height="24" fill="white"/>
<rect x="54" y="151" width="27" height="23" fill="white"/>
<ellipse cx="76.5" cy="212" rx="17.5" ry="36" fill="#3A3335"/>
<path d="M77.4827 270C69.686 228.132 77.4042 186.416 77.4831 186L78.9996 186.23C78.9211 186.644 71.2473 228.141 79 269.774L77.4827 270Z" fill="#EB5E55"/>
<path d="M75.8394 212.581L91.6607 204.124L92.3129 205.343L76.4915 213.8L75.8394 212.581Z" fill="#EB5E55"/>
<path d="M59.1411 209.579L59.7936 208.361L75.6131 216.823L74.9606 218.041L59.1411 209.579Z" fill="#EB5E55"/>
<ellipse cx="34.5" cy="156.5" rx="34.5" ry="69.5" fill="#EB5E55"/>
<path d="M37.541 271C22.8978 188.759 37.3933 106.818 37.5414 106L38.9996 106.231C38.8519 107.047 24.399 188.768 39 270.773L37.541 271Z" fill="#3A3335"/>
<path d="M33.7131 158.892L64.6586 142.35L65.3108 143.569L34.3653 160.111L33.7131 158.892Z" fill="#3A3335"/>
<path d="M1.0542 151.855L1.7067 150.637L32.6476 167.187L31.9951 168.406L1.0542 151.855Z" fill="#3A3335"/>
<ellipse cx="115.5" cy="114.5" rx="46.5" ry="95.5" fill="#EB5E55"/>
<path d="M120.598 271C101.35 158.853 120.404 47.1154 120.598 46L122 46.2305C121.805 47.3439 102.793 158.862 122 270.774L120.598 271Z" fill="#3A3335"/>
<path d="M114.696 117.898L157.042 95.2618L157.695 96.4804L115.348 119.117L114.696 117.898Z" fill="#3A3335"/>
<path d="M70.0048 107.82L70.6573 106.601L112.998 129.249L112.345 130.467L70.0048 107.82Z" fill="#3A3335"/>
<path d="M339.387 61.3569L345 57.0602C340.64 56.5997 338.848 58.8758 338.115 60.6774C334.708 59.3235 331 61.0978 331 61.0978L342.23 65C341.664 63.5516 340.677 62.2879 339.387 61.3569Z" fill="#3A3335"/>
<path d="M204.387 21.3569L210 17.0602C205.64 16.5997 203.848 18.8758 203.115 20.6774C199.708 19.3235 196 21.0978 196 21.0978L207.23 25C206.664 23.5516 205.677 22.2879 204.387 21.3569Z" fill="#3A3335"/>
<path d="M154.5 262.2C153.008 262.2 151.544 262.587 150.253 263.322C147.574 260.937 143.72 260.331 140.42 261.776C137.12 263.22 134.996 266.444 135 270H163C162.683 265.607 158.972 262.202 154.5 262.2Z" fill="#3A3335"/>
<path d="M298.5 262.2C297.008 262.2 295.544 262.587 294.253 263.322C291.574 260.937 287.72 260.331 284.42 261.776C281.12 263.22 278.996 266.444 279 270H307C306.683 265.607 302.972 262.202 298.5 262.2Z" fill="#3A3335"/>
<path d="M269 243H189V245.571H201.477V270H204.057V245.571H252.652V270H255.233V245.571H269V243Z" fill="#3A3335"/>
<rect x="189" y="236" width="80" height="2" fill="#3A3335"/>
<rect x="189" y="229" width="80" height="2" fill="#3A3335"/>
<rect x="189" y="223" width="80" height="2" fill="#3A3335"/>
<path d="M393 243H313V245.571H325.477V270H328.057V245.571H376.652V270H379.233V245.571H393V243Z" fill="#3A3335"/>
<rect x="313" y="236" width="80" height="2" fill="#3A3335"/>
<rect x="313" y="229" width="80" height="2" fill="#3A3335"/>
<rect x="313" y="223" width="80" height="2" fill="#3A3335"/>
</svg>
