<svg width="161" height="44" viewBox="0 0 161 44" fill="none" xmlns="http://www.w3.org/2000/svg">
<path d="M39.0518 14.3444L24.4049 1.47322C22.1711 -0.489121 18.8289 -0.489121 16.5951 1.47322L1.94821 14.3444C1.18759 15.0117 0.588138 15.8572 0.274276 16.8185C0.0933104 17.3784 0 17.9665 0 18.5632V37.9152C0 41.1838 2.64945 43.8305 5.91531 43.8305H35.0819C38.3506 43.8305 40.9972 41.181 40.9972 37.9152V18.5632C40.9972 17.9665 40.9039 17.3784 40.7229 16.8185C40.4119 15.8572 39.8096 15.0117 39.049 14.3444H39.0518ZM29.0846 28.1543L21.7498 35.1894C21.1617 35.7521 20.237 35.7634 19.6376 35.2148L11.9946 28.2335C11.0926 27.3315 10.479 26.1665 10.332 24.9026C10.1341 23.1863 10.7166 21.5349 11.9154 20.3361C13.1143 19.1372 14.7657 18.5575 16.482 18.7526C17.7488 18.8968 18.9137 19.5132 19.8157 20.4152L20.2201 20.8196C20.3728 20.9723 20.6244 20.9723 20.7771 20.8196L21.1814 20.4152C22.0835 19.5132 23.2484 18.8968 24.5152 18.7526C26.2315 18.5575 27.8828 19.1372 29.0817 20.3332C30.1279 21.3794 30.7019 22.7678 30.7019 24.2438C30.7019 25.7198 30.1251 27.1081 29.0817 28.1543H29.0846Z" fill="#EB5E55"/>
<path d="M66.2994 20.6016H62.8776C62.8151 20.1589 62.6875 19.7656 62.4948 19.4219C62.302 19.0729 62.0546 18.776 61.7526 18.5312C61.4505 18.2865 61.1015 18.099 60.7057 17.9687C60.3151 17.8385 59.8906 17.7734 59.4323 17.7734C58.6041 17.7734 57.8828 17.9792 57.2682 18.3906C56.6536 18.7969 56.177 19.3906 55.8385 20.1719C55.5 20.9479 55.3307 21.8906 55.3307 23C55.3307 24.1406 55.5 25.099 55.8385 25.875C56.1823 26.651 56.6614 27.237 57.276 27.6328C57.8906 28.0286 58.6015 28.2266 59.4088 28.2266C59.8619 28.2266 60.2812 28.1667 60.6666 28.0469C61.0573 27.9271 61.4036 27.7526 61.7057 27.5234C62.0078 27.2891 62.2578 27.0052 62.4557 26.6719C62.6588 26.3385 62.7994 25.9583 62.8776 25.5312L66.2994 25.5469C66.2109 26.2812 65.9895 26.9896 65.6354 27.6719C65.2864 28.349 64.8151 28.9557 64.2213 29.4922C63.6328 30.0234 62.9296 30.4453 62.1119 30.7578C61.2994 31.0651 60.3802 31.2187 59.3541 31.2187C57.927 31.2187 56.651 30.8958 55.526 30.25C54.4062 29.6042 53.5208 28.6693 52.8698 27.4453C52.2239 26.2214 51.901 24.7396 51.901 23C51.901 21.2552 52.2291 19.7708 52.8854 18.5469C53.5416 17.3229 54.4323 16.3906 55.5573 15.75C56.6823 15.1042 57.9479 14.7812 59.3541 14.7812C60.2812 14.7812 61.1406 14.9115 61.9323 15.1719C62.7291 15.4323 63.4349 15.8125 64.0494 16.3125C64.664 16.8073 65.164 17.4141 65.5494 18.1328C65.9401 18.8516 66.1901 19.6745 66.2994 20.6016ZM74.0846 31.2344C72.8711 31.2344 71.8216 30.9766 70.9362 30.4609C70.0559 29.9401 69.3763 29.2161 68.8971 28.2891C68.4179 27.3568 68.1783 26.276 68.1783 25.0469C68.1783 23.8073 68.4179 22.724 68.8971 21.7969C69.3763 20.8646 70.0559 20.1406 70.9362 19.625C71.8216 19.1042 72.8711 18.8438 74.0846 18.8438C75.2981 18.8438 76.345 19.1042 77.2252 19.625C78.1106 20.1406 78.7929 20.8646 79.2721 21.7969C79.7513 22.724 79.9908 23.8073 79.9908 25.0469C79.9908 26.276 79.7513 27.3568 79.2721 28.2891C78.7929 29.2161 78.1106 29.9401 77.2252 30.4609C76.345 30.9766 75.2981 31.2344 74.0846 31.2344ZM74.1002 28.6562C74.6523 28.6562 75.1132 28.5 75.483 28.1875C75.8528 27.8698 76.1315 27.4375 76.319 26.8906C76.5117 26.3437 76.608 25.7214 76.608 25.0234C76.608 24.3255 76.5117 23.7031 76.319 23.1562C76.1315 22.6094 75.8528 22.1771 75.483 21.8594C75.1132 21.5417 74.6523 21.3828 74.1002 21.3828C73.5429 21.3828 73.0742 21.5417 72.694 21.8594C72.319 22.1771 72.0351 22.6094 71.8424 23.1562C71.6549 23.7031 71.5612 24.3255 71.5612 25.0234C71.5612 25.7214 71.6549 26.3437 71.8424 26.8906C72.0351 27.4375 72.319 27.8698 72.694 28.1875C73.0742 28.5 73.5429 28.6562 74.1002 28.6562ZM82.0924 31V29.0156L87.9674 21.7422V21.6562H82.2955V19H91.9752V21.1641L86.4596 28.2578V28.3437H92.1783V31H82.0924ZM96.778 35.5C96.3561 35.5 95.9602 35.4661 95.5905 35.3984C95.2259 35.3359 94.9238 35.2552 94.6842 35.1562L95.4342 32.6719C95.8248 32.7917 96.1764 32.8568 96.4889 32.8672C96.8066 32.8776 97.08 32.8047 97.3092 32.6484C97.5436 32.4922 97.7337 32.2266 97.8795 31.8516L98.0748 31.3438L93.7701 19H97.2701L99.7545 27.8125H99.8795L102.387 19H105.911L101.247 32.2969C101.023 32.9427 100.718 33.5052 100.333 33.9844C99.9524 34.4688 99.4707 34.8411 98.8873 35.1016C98.304 35.3672 97.6009 35.5 96.778 35.5Z" fill="#EB5E55"/>
</svg>
